<?xml version="1.0" encoding="UTF-8" standalone="no"?>
<!-- Created with Inkscape (http://www.inkscape.org/) -->

<svg
   width="210mm"
   height="297mm"
   viewBox="0 0 210 297"
   version="1.1"
   id="svg5"
   inkscape:version="1.2.1 (9c6d41e410, 2022-07-14)"
   sodipodi:docname="drawing.svg"
   xml:space="preserve"
   xmlns:inkscape="http://www.inkscape.org/namespaces/inkscape"
   xmlns:sodipodi="http://sodipodi.sourceforge.net/DTD/sodipodi-0.dtd"
   xmlns:xlink="http://www.w3.org/1999/xlink"
   xmlns="http://www.w3.org/2000/svg"
   xmlns:svg="http://www.w3.org/2000/svg"><sodipodi:namedview
     id="namedview7"
     pagecolor="#ffffff"
     bordercolor="#000000"
     borderopacity="0.25"
     inkscape:showpageshadow="2"
     inkscape:pageopacity="0.0"
     inkscape:pagecheckerboard="0"
     inkscape:deskcolor="#d1d1d1"
     inkscape:document-units="mm"
     showgrid="false"
     inkscape:zoom="0.69308361"
     inkscape:cx="1952.8668"
     inkscape:cy="1178.79"
     inkscape:window-width="3840"
     inkscape:window-height="2137"
     inkscape:window-x="1432"
     inkscape:window-y="173"
     inkscape:window-maximized="1"
     inkscape:current-layer="layer1" /><defs
     id="defs2"><linearGradient
       inkscape:collect="always"
       id="linearGradient9507"><stop
         style="stop-color:#ffffff;stop-opacity:1;"
         offset="0.23684211"
         id="stop9503" /><stop
         style="stop-color:#ffca3a;stop-opacity:1;"
         offset="1"
         id="stop9505" /></linearGradient><linearGradient
       inkscape:collect="always"
       id="linearGradient3520"><stop
         style="stop-color:#ffffff;stop-opacity:0;"
         offset="0.81578946"
         id="stop3516" /><stop
         style="stop-color:#ffffff;stop-opacity:1;"
         offset="1"
         id="stop3518" /></linearGradient><marker
       style="overflow:visible"
       id="marker2035"
       refX="0"
       refY="0"
       orient="auto-start-reverse"
       inkscape:stockid="Arrow5"
       markerWidth="5.8874264"
       markerHeight="6.6094756"
       viewBox="0 0 5.8874262 6.6094758"
       inkscape:isstock="true"
       inkscape:collect="always"
       preserveAspectRatio="xMidYMid"><path
         transform="scale(0.5)"
         style="fill:context-stroke;fill-rule:evenodd;stroke:context-stroke;stroke-width:1pt"
         d="m 6,0 c -3,1 -7,3 -9,5 0,0 0,-4 2,-5 -2,-1 -2,-5 -2,-5 2,2 6,4 9,5 z"
         id="path2033" /></marker><marker
       style="overflow:visible"
       id="Arrow5"
       refX="0"
       refY="0"
       orient="auto-start-reverse"
       inkscape:stockid="Arrow5"
       markerWidth="5.8874259"
       markerHeight="6.6094756"
       viewBox="0 0 5.8874262 6.6094758"
       inkscape:isstock="true"
       inkscape:collect="always"
       preserveAspectRatio="xMidYMid"><path
         transform="scale(0.5)"
         style="fill:context-stroke;fill-rule:evenodd;stroke:context-stroke;stroke-width:1pt"
         d="m 6,0 c -3,1 -7,3 -9,5 0,0 0,-4 2,-5 -2,-1 -2,-5 -2,-5 2,2 6,4 9,5 z"
         id="path8893" /></marker><inkscape:perspective
       sodipodi:type="inkscape:persp3d"
       inkscape:vp_x="133.63053 : 119.10018 : 1"
       inkscape:vp_y="-833.90998 : 551.90042 : 0"
       inkscape:vp_z="249.52962 : 294.2213 : 1"
       inkscape:persp3d-origin="232.85862 : 179.34167 : 1"
       id="perspective454" /><inkscape:perspective
       sodipodi:type="inkscape:persp3d"
       inkscape:vp_x="84.862866 : -75.331847 : 1"
       inkscape:vp_y="-846.76753 : 677.9517 : 0"
       inkscape:vp_z="202.54894 : 139.78607 : 1"
       inkscape:persp3d-origin="185.6209 : -1.3315211 : 1"
       id="perspective454-0" /><marker
       style="overflow:visible"
       id="Arrow5-3"
       refX="0"
       refY="0"
       orient="auto-start-reverse"
       inkscape:stockid="Arrow5"
       markerWidth="5.8874259"
       markerHeight="6.6094756"
       viewBox="0 0 5.8874262 6.6094758"
       inkscape:isstock="true"
       inkscape:collect="always"
       preserveAspectRatio="xMidYMid"><path
         transform="scale(0.5)"
         style="fill:context-stroke;fill-rule:evenodd;stroke:context-stroke;stroke-width:1pt"
         d="m 6,0 c -3,1 -7,3 -9,5 0,0 0,-4 2,-5 -2,-1 -2,-5 -2,-5 2,2 6,4 9,5 z"
         id="path8893-6" /></marker><marker
       style="overflow:visible"
       id="marker2035-8"
       refX="0"
       refY="0"
       orient="auto-start-reverse"
       inkscape:stockid="Arrow5"
       markerWidth="5.8874259"
       markerHeight="6.6094756"
       viewBox="0 0 5.8874262 6.6094758"
       inkscape:isstock="true"
       inkscape:collect="always"
       preserveAspectRatio="xMidYMid"><path
         transform="scale(0.5)"
         style="fill:context-stroke;fill-rule:evenodd;stroke:context-stroke;stroke-width:1pt"
         d="m 6,0 c -3,1 -7,3 -9,5 0,0 0,-4 2,-5 -2,-1 -2,-5 -2,-5 2,2 6,4 9,5 z"
         id="path2033-3" /></marker><radialGradient
       inkscape:collect="always"
       xlink:href="#linearGradient3520"
       id="radialGradient3522"
       cx="292.03726"
       cy="223.32262"
       fx="292.03726"
       fy="223.32262"
       r="30.169348"
       gradientTransform="matrix(1,0,0,0.98734655,0,2.8258012)"
       gradientUnits="userSpaceOnUse" /><radialGradient
       inkscape:collect="always"
       xlink:href="#linearGradient9507"
       id="radialGradient9509"
       cx="-90.431537"
       cy="85.525348"
       fx="-90.431537"
       fy="85.525348"
       r="89.613081"
       gradientTransform="matrix(1,0,0,1.0413958,-20.614396,4.0945718)"
       gradientUnits="userSpaceOnUse" /><filter
       inkscape:collect="always"
       style="color-interpolation-filters:sRGB"
       id="filter16591"
       x="-0.044583101"
       y="-0.055510587"
       width="1.1049259"
       height="1.1114551"><feGaussianBlur
         inkscape:collect="always"
         stdDeviation="3.1515327"
         id="feGaussianBlur16593" /></filter></defs><g
     inkscape:label="Layer 1"
     inkscape:groupmode="layer"
     id="layer1"><ellipse
       style="fill:none;stroke:#ff0000;stroke-width:0.786;stroke-dasharray:none;stroke-opacity:1;paint-order:markers fill stroke"
       id="path735"
       cx="306.21628"
       cy="61.3899"
       rx="123.21169"
       ry="83.395218"
       inkscape:export-filename="rotationalDeadzone.png"
       inkscape:export-xdpi="96"
       inkscape:export-ydpi="96" /><text
       xml:space="preserve"
       style="font-size:12.7px;text-align:center;text-anchor:middle;fill:#ffffff;fill-opacity:1;stroke:none;stroke-width:1.385;stroke-dasharray:none;stroke-opacity:1;paint-order:markers fill stroke"
       x="306.19089"
       y="58.214901"
       id="text1414"><tspan
         sodipodi:role="line"
         id="tspan1412"
         style="fill:#ffffff;fill-opacity:1;stroke:none;stroke-width:1.385"
         x="306.19089"
         y="58.214901">move beyond the </tspan><tspan
         sodipodi:role="line"
         style="fill:#ffffff;fill-opacity:1;stroke:none;stroke-width:1.385"
         x="306.19089"
         y="74.089905"
         id="tspan1570">deadzone to rotate</tspan></text><text
       xml:space="preserve"
       style="font-size:12.7px;text-align:center;text-anchor:middle;fill:#000000;fill-opacity:1;stroke:none;stroke-width:1.385;stroke-dasharray:none;stroke-opacity:1;paint-order:markers fill stroke"
       x="50.008995"
       y="33.212082"
       id="text1574"><tspan
         sodipodi:role="line"
         id="tspan1572"
         style="stroke-width:1.385" /></text><text
       xml:space="preserve"
       style="font-size:12.7px;text-align:center;text-anchor:middle;fill:#000000;fill-opacity:1;stroke:none;stroke-width:1.385;stroke-dasharray:none;stroke-opacity:1;paint-order:markers fill stroke"
       x="40.465294"
       y="17.94216"
       id="text1578"><tspan
         sodipodi:role="line"
         id="tspan1576"
         style="stroke-width:1.385"
         x="40.465294"
         y="17.94216" /></text><path
       style="fill:none;fill-opacity:1;stroke:#ff6e3d;stroke-width:1.385;stroke-dasharray:none;stroke-opacity:1;marker-start:url(#Arrow5);marker-end:url(#marker2035);paint-order:markers fill stroke"
       d="M 47.281537,-72.959553 H 99.390149"
       id="path2003"
       inkscape:export-filename="UI\WASD-move.png"
       inkscape:export-xdpi="97.114693"
       inkscape:export-ydpi="97.114693" /><path
       style="fill:none;fill-opacity:1;stroke:#ff6e3d;stroke-width:1.385;stroke-dasharray:none;stroke-opacity:1;marker-start:url(#Arrow5);marker-end:url(#marker2035);paint-order:markers fill stroke"
       d="m 73.335843,-93.86026 v 41.801415"
       id="path2005" /><text
       xml:space="preserve"
       style="font-size:25.4px;text-align:center;text-anchor:middle;fill:#000000;fill-opacity:1;stroke:none;stroke-width:1.385;stroke-dasharray:none;stroke-opacity:1;paint-order:markers fill stroke"
       x="41.300308"
       y="-12.417086"
       id="text2229"><tspan
         sodipodi:role="line"
         id="tspan2227"
         style="stroke-width:1.385;stroke:none"
         x="41.300308"
         y="-12.417086" /></text><path
       style="fill:#ff6e3d;fill-opacity:1;stroke:#ff6e3d;stroke-width:1.385;stroke-dasharray:none;stroke-opacity:1;marker-start:url(#Arrow5-3);marker-end:url(#marker2035-8);paint-order:markers fill stroke"
       d="m 188.86435,-174.83132 v 41.80141"
       id="path2005-3"
       inkscape:export-filename="UI\altitudeControl.png"
       inkscape:export-xdpi="97.114693"
       inkscape:export-ydpi="97.114693" /><path
       style="fill:#000000;fill-opacity:1;stroke:#ff0000;stroke-width:1.385;stroke-dasharray:none;stroke-opacity:1;marker-start:url(#Arrow5-3);paint-order:markers fill stroke"
       d="m 115.53288,232.29988 0,10.62372"
       id="path2005-3-2"
       sodipodi:nodetypes="cc"
       inkscape:export-filename="UI\arrow-2.png"
       inkscape:export-xdpi="96"
       inkscape:export-ydpi="96" /><path
       sodipodi:type="star"
       style="fill:#ffffff;fill-opacity:1;stroke:#ff0000;stroke-width:1.385;stroke-dasharray:none;stroke-opacity:1;paint-order:markers fill stroke"
       id="path3374"
       inkscape:flatsided="true"
       sodipodi:sides="3"
       sodipodi:cx="103.07198"
       sodipodi:cy="143.91902"
       sodipodi:r1="23.218475"
       sodipodi:r2="4.7511678"
       sodipodi:arg1="0.52359878"
       sodipodi:arg2="1.5707963"
       inkscape:rounded="0"
       inkscape:randomized="0"
       d="m 123.17977,155.52826 -40.215576,0 20.107786,-34.82771 z"
       inkscape:transform-center-x="1.2985446e-06"
       inkscape:transform-center-y="-5.8046205"
       inkscape:export-filename="arrow.png"
       inkscape:export-xdpi="96"
       inkscape:export-ydpi="96" /><path
       style="fill:none;fill-opacity:1;stroke:#ff0000;stroke-width:3.985;stroke-dasharray:none;stroke-opacity:1;paint-order:markers fill stroke"
       d="m 102.97654,130.4624 0,14.88818"
       id="path3380"
       sodipodi:nodetypes="cc" /><path
       style="fill:none;fill-opacity:1;stroke:#ff0000;stroke-width:3.985;stroke-dasharray:none;stroke-opacity:1;paint-order:markers fill stroke"
       d="m 103.07198,147.64107 v 5.43991"
       id="path3382" /><ellipse
       style="fill:url(#radialGradient3522);fill-opacity:1;stroke:#ffffff;stroke-width:0.786;stroke-dasharray:none;stroke-opacity:1;paint-order:markers fill stroke"
       id="path3491"
       cx="292.03726"
       cy="223.32262"
       rx="29.776348"
       ry="29.394602"
       inkscape:export-filename="bubble.png"
       inkscape:export-xdpi="96"
       inkscape:export-ydpi="96" /><path
       style="fill:#ffffff;fill-opacity:1;stroke:#ffffff;stroke-width:0.786;stroke-dasharray:none;stroke-opacity:1;paint-order:markers fill stroke"
       d="m 182.07227,209.74078 h 23.88939 c 0,0 -3.37421,37.65616 -13.36186,34.41692 -9.98766,-3.23924 -10.52753,-34.41692 -10.52753,-34.41692 z"
       id="path9332"
       inkscape:export-filename="UI\armor.png"
       inkscape:export-xdpi="97.114693"
       inkscape:export-ydpi="97.114693" /><path
       style="fill:#ffffff;fill-opacity:1;stroke-width:0.0855232"
       d="m 124.43012,356.00219 c -1.6507,-0.34205 -3.16028,-1.35407 -4.38036,-2.93659 -1.02643,-1.33134 -1.64623,-2.70608 -2.02412,-4.4896 -0.17085,-0.80632 -0.19667,-1.12279 -0.19667,-2.41048 0,-1.28769 0.0258,-1.60417 0.19667,-2.41049 0.38999,-1.84061 1.14092,-3.4406 2.22161,-4.73354 1.12048,-1.34055 2.39082,-2.19142 3.91302,-2.62095 0.21475,-0.0606 1.52235,-0.14952 2.98284,-0.16824 l 4.70725,-0.0604 -2.03035,-5.73793 0.21204,-0.45101 c 0.11662,-0.24806 0.33166,-0.5651 0.47786,-0.70454 0.50378,-0.48046 0.67439,-0.50931 3.03866,-0.51382 l 2.19888,-0.004 3.97724,1.5e-4 h 0.90173 c 1.43169,0 2.31749,0.40297 3.15326,1.43448 0.57786,0.71319 1.53001,3.63439 1.53001,3.63439 l 1.75967,2.4881 c 0,0 5.8476,1.27641 9.41442,2.99693 0.61506,0.29669 1.13938,0.53944 1.16514,0.53944 0.0258,0 0.39031,-0.64212 0.81009,-1.42693 0.41978,-0.78482 0.88489,-1.54296 1.03359,-1.68477 0.48798,-0.46539 0.71778,-0.51361 2.46955,-0.51813 0.8939,-0.002 1.62527,0.0183 1.62527,0.0459 0,0.0275 -0.27743,1.43557 -0.61651,3.12899 -0.56323,2.81286 -0.60554,3.08897 -0.48955,3.19502 0.0698,0.0638 0.60587,0.42716 1.19121,0.80736 1.54192,1.00156 1.90443,1.54684 1.9013,2.85995 -0.001,0.63772 -0.1879,1.18753 -0.56048,1.65339 -0.1529,0.19119 -0.80003,0.68761 -1.46202,1.12155 -0.65322,0.42818 -1.18769,0.79765 -1.18769,0.82104 0,0.0234 0.27534,1.41761 0.61187,3.09828 0.33653,1.68067 0.61187,3.07828 0.61187,3.10581 0,0.0275 -0.74858,0.0496 -1.66351,0.0491 -1.59017,-7.3e-4 -1.68037,-0.0109 -2.04592,-0.22738 -0.49228,-0.29148 -0.72169,-0.60936 -1.49163,-2.06686 -0.34732,-0.65747 -0.65632,-1.22989 -0.68668,-1.27203 -0.0304,-0.0421 -0.39588,0.0928 -0.81228,0.29996 -2.32099,1.1545 -4.97471,2.17607 -6.97586,2.68542 -2.33758,0.59497 -2.03981,0.58291 -14.08702,0.57064 -6.15804,-0.006 -11.15948,-0.0492 -11.39428,-0.0979 z"
       id="path9394"
       sodipodi:nodetypes="csssssssccsssccssccsssscsssscssssscsssssscc"
       inkscape:export-filename="UI\submarine.png"
       inkscape:export-xdpi="97.114693"
       inkscape:export-ydpi="97.114693" /><path
       style="fill:#ffffff;fill-opacity:1;stroke-width:0.0855232"
       d="m 190.39964,349.314 c -1.6507,-0.34205 -3.16028,-1.35407 -4.38036,-2.93659 -1.02643,-1.33134 -1.64623,-2.70608 -2.02412,-4.4896 -0.17085,-0.80632 -0.19667,-1.12279 -0.19667,-2.41048 0,-1.28769 0.0258,-1.60417 0.19667,-2.41049 0.38999,-1.84061 1.14092,-3.4406 2.22161,-4.73354 1.12048,-1.34055 2.39082,-2.19142 3.91302,-2.62095 0.21475,-0.0606 1.52235,-0.1495 2.98284,-0.16824 l 4.70725,-0.0604 15.219,0.14582 c 0,0 5.8476,1.27641 9.41442,2.99693 0.61506,0.29669 1.13938,0.53944 1.16514,0.53944 0.0258,0 0.39031,-0.64212 0.81009,-1.42693 0.41978,-0.78482 0.88489,-1.54296 1.03359,-1.68477 0.48798,-0.46539 0.71778,-0.51361 2.46955,-0.51813 0.8939,-0.002 1.62527,0.0183 1.62527,0.0459 0,0.0275 -0.27743,1.43557 -0.61651,3.12899 -0.56323,2.81286 -0.60554,3.08897 -0.48955,3.19502 0.0698,0.0638 0.60587,0.42716 1.19121,0.80736 1.54192,1.00156 1.90443,1.54684 1.9013,2.85995 -10e-4,0.63772 -0.1879,1.18753 -0.56048,1.65339 -0.1529,0.19119 -0.80003,0.68761 -1.46202,1.12155 -0.65322,0.42818 -1.18769,0.79765 -1.18769,0.82104 0,0.0234 0.27534,1.41761 0.61187,3.09828 0.33653,1.68067 0.61187,3.07828 0.61187,3.10581 0,0.0275 -0.74858,0.0496 -1.66351,0.0491 -1.59017,-7.3e-4 -1.68037,-0.0109 -2.04592,-0.22738 -0.49228,-0.29148 -0.72169,-0.60936 -1.49163,-2.06686 -0.34732,-0.65747 -0.65632,-1.22989 -0.68668,-1.27203 -0.0304,-0.0421 -0.39588,0.0928 -0.81228,0.29996 -2.32099,1.1545 -4.97471,2.17607 -6.97586,2.68542 -2.33758,0.59497 -2.03981,0.58291 -14.08702,0.57064 -6.15804,-0.006 -11.15948,-0.0492 -11.39428,-0.0979 z"
       id="path9394-0"
       sodipodi:nodetypes="csssssssccsssscsssscssssscsssssscc"
       inkscape:export-filename="UI\submarine-topView.png"
       inkscape:export-xdpi="97.114693"
       inkscape:export-ydpi="97.114693" /><path
       style="fill:#ffffff;fill-opacity:1;stroke-width:0.108134"
       d="m 39.319192,336.01462 c -2.7421,-0.51624 -7.88213,-3.42341 -7.88213,-3.42341 l 2.07984,-6.16114 c 0,0 3.97485,2.15766 5.75826,2.5626 2.74796,0.62395 5.88519,-0.20596 9.55497,-2.52766 1.36708,-0.86488 1.70823,-0.8683 3.03822,-0.0305 2.11842,1.33451 4.36558,2.30899 6.07081,2.63261 2.47258,0.46924 5.60148,-0.34952 8.69356,-2.2749 0.59796,-0.37233 1.31506,-0.77462 1.59357,-0.89397 0.46859,-0.20082 0.54414,-0.20082 1.01273,0 0.27851,0.11935 0.99561,0.52164 1.59357,0.89397 3.09066,1.9245 6.10649,2.71955 8.62028,2.27253 1.70411,-0.30304 6.00407,-2.53834 6.00407,-2.53834 l 1.73337,6.43112 c 0,0 -3.96369,2.19314 -6.01648,2.75446 -1.42021,0.38834 -4.14364,0.48984 -5.62045,0.20946 -2.04896,-0.389 -4.57612,-1.43156 -6.18971,-2.55349 l -0.64591,-0.44911 -0.41086,0.31349 c -1.15204,0.879 -3.67157,2.02634 -5.60664,2.55315 -1.24219,0.33817 -4.97498,0.34126 -6.25257,0.005 -1.8621,-0.48985 -3.77753,-1.33084 -5.32524,-2.3381 l -0.7459,-0.48543 -0.76311,0.49604 c -1.5499,1.00747 -3.25612,1.7653 -5.07194,2.25273 -0.79932,0.21457 -1.48655,0.28795 -2.97667,0.31785 -1.06558,0.0214 -2.07612,0.0127 -2.24564,-0.0192 z"
       id="path9408"
       sodipodi:nodetypes="sccsssssssssccssscsssscsssss"
       inkscape:export-filename="waterline.png"
       inkscape:export-xdpi="97.114693"
       inkscape:export-ydpi="97.114693" /><path
       style="fill:#ffffff;fill-opacity:1;stroke-width:0.114511"
       d="m 107.31092,506.12393 c -5.02882,-0.92959 -10.069649,-3.63491 -13.855802,-7.43615 -8.143645,-8.1761 -11.614793,-21.70857 -10.134009,-39.508 0.06287,-0.75578 0.142852,-1.59054 0.177728,-1.85504 l 0.06341,-0.48092 3.457797,-1.37087 c 3.799252,-1.50624 10.682602,-1.53292 10.682602,-1.53292 0,0 8.418364,-5.72254 10.037684,-6.10232 0.85778,-0.20118 0.91714,-0.20118 1.77492,0 1.66324,0.39009 10.25585,5.86735 10.25585,5.86735 0,0 6.87556,0.34506 10.46444,1.76789 l 3.45779,1.37087 0.0634,0.48092 c 0.43914,3.33049 0.62654,9.69482 0.40361,13.7069 -0.67587,12.16364 -4.14487,21.42374 -10.35989,27.65447 -3.60046,3.60957 -8.31788,6.24227 -12.99697,7.25335 -1.54797,0.3345 -2.42919,0.38104 -3.49257,0.18447 z m 2.7194,-6.59374 c 1.28198,-0.31667 2.38138,-0.73268 3.76031,-1.42289 5.46338,-2.73465 9.37833,-7.58601 11.67436,-14.46673 1.72678,-5.17479 2.5209,-11.4342 2.35811,-18.58694 -0.0449,-1.97203 -0.12151,-3.28069 -0.20249,-3.45843 -0.0717,-0.15727 -0.30516,-0.36892 -0.51889,-0.47034 -0.74155,-0.35189 -10.10568,-1.62223 -10.10568,-1.62223 0,0 -5.28489,-4.27691 -6.62196,-4.72931 l -1.74629,-0.59086 -1.74629,0.59086 c -1.41154,0.4776 -7.407244,5.34556 -7.407244,5.34556 0,0 -8.611321,0.6695 -9.320396,1.00598 -0.213733,0.10142 -0.447235,0.31307 -0.51889,0.47034 -0.08098,0.17774 -0.157604,1.4864 -0.202488,3.45843 -0.348462,15.31027 3.691698,26.30584 11.627248,31.64434 1.26439,0.85059 3.01735,1.77731 4.24725,2.24534 1.10577,0.42079 3.22239,0.93814 3.54983,0.86766 0.15745,-0.0339 0.68553,-0.16024 1.17351,-0.28078 z m -2.03234,-1.66435 c -4.68464,-1.27522 -8.390691,-3.92949 -11.15303,-7.98781 -2.357699,-3.46383 -3.922967,-7.70381 -4.822667,-13.0636 -0.617571,-3.67907 -0.906978,-8.40323 -0.747401,-12.20025 l 0.08442,-3.0001 9.173608,0.064 c 0,0 4.22633,-4.20608 5.89055,-4.79257 l 2.20433,-0.77683 2.20433,0.77683 c 1.60121,0.56429 5.3493,4.26832 5.3493,4.26832 l 9.71485,0.70809 0.0844,2.75227 c 0.0339,1.10529 0.0503,3.01363 0.009,4.24175 -0.48305,14.23853 -4.85975,23.52794 -13.00681,27.60649 -1.96343,0.98294 -4.20785,1.61485 -4.98457,1.40342 z"
       id="path9422"
       sodipodi:nodetypes="sssscscsscscssssssssssscscscsssssssssssccccsccccssss"
       inkscape:export-filename="UI\armor.png"
       inkscape:export-xdpi="97.114693"
       inkscape:export-ydpi="97.114693" /><path
       style="fill:url(#radialGradient9509);fill-opacity:1;stroke:#ffffff;stroke-width:2.286;stroke-dasharray:0.5715, 0.5715;stroke-opacity:1;paint-order:markers fill stroke;stroke-dashoffset:0;filter:url(#filter16591)"
       d="m -144.68252,74.059122 -13.74293,-15.65167 -12.21594,-3.43573 -2.29049,-6.10797 -13.36118,-26.34062 27.86761,15.65167 9.16195,0.7635 4.58098,7.63496 11.07069,12.21594 23.66839,-2.29049 4.19922,-19.8509 -3.05398,-13.74293 18.323912,-22.14138936 4.19922,27.48585936 -4.96272,16.03342 -2.67224,19.8509 5.72623,9.16196 65.660662,-27.48586 -16.415166,23.66837 -35.884316,16.79692 8.01671,24.050128 16.79691,6.87146 17.942161,25.95887 -40.847041,-14.12468 -13.74293,-15.26992 -19.850902,3.05398 -3.43573,46.95502 -16.79692,21.75964 -5.34448,-32.06684 -0.38175,-26.34062 -30.53984,-11.07069 -37.41131,6.48971 30.92159,-24.050118 12.59769,-3.05399 z"
       id="path9501"
       inkscape:export-filename="muzzleFlash.png"
       inkscape:export-xdpi="97.114693"
       inkscape:export-ydpi="97.114693" /><path
       style="fill:#35b31c;fill-opacity:1;stroke:none;stroke-width:2.286;stroke-dasharray:none;stroke-dashoffset:0;stroke-opacity:1;paint-order:markers fill stroke"
       d="m -549.67739,237.91702 6.10797,11.07069 -1.527,22.14138 0.7635,17.94216 12.97943,31.6851 -4.19923,16.79691 -4.58097,22.52313 -0.38175,20.6144 -1.14525,22.1414 4.19923,27.48584 -1.14524,13.74293 3.81748,26.34062 19.0874,-10.30719 v -29.77636 l -5.34447,-18.70565 -9.92545,-17.17865 -4.96272,-14.50644 0.76349,-9.92545 7.63496,-29.77634 -1.14524,-17.56042 3.05398,-40.4653 -9.16195,-30.53985 z"
       id="path19655" /><path
       style="fill:#35b31c;fill-opacity:1;stroke:none;stroke-width:2.286;stroke-dasharray:none;stroke-dashoffset:0;stroke-opacity:1;paint-order:markers fill stroke"
       d="m -522.19153,270.3656 -4.96273,4.19923 0.38175,10.30719 -7.25321,10.30721 -8.78021,5.34446 -0.76349,6.10798 -11.8342,6.87147 -6.10797,11.45244 -8.0167,9.5437 0.38174,7.63495 -4.58097,14.50644 3.05398,9.16194 -0.38175,12.97945 2.67224,9.92545 2.29049,4.19923 -0.7635,9.92545 7.63496,12.59768 v 9.16194 l -0.38174,6.87147 4.19922,5.72622 0.7635,9.16196 0.38175,8.7802 h 12.97943 l -1.14524,-11.0707 5.34447,-8.39845 -3.43573,-10.68893 -1.14525,-9.92545 v -8.39848 l -4.58097,-11.83418 v -11.45244 l -5.34448,-11.07069 0.38175,-9.54371 -3.05398,-8.39846 6.87146,-13.36119 -1.90874,-6.10796 1.14525,-3.05398 12.97943,-9.16196 3.81748,-12.21592 7.63496,-1.90876 3.81748,-10.30719 6.48972,-9.92544 -1.90874,-5.72622 0.7635,-8.01672 -3.43574,-4.58097 z"
       id="path19720" /><path
       style="fill:#35b31c;fill-opacity:1;stroke:none;stroke-width:2.286;stroke-dasharray:none;stroke-dashoffset:0;stroke-opacity:1;paint-order:markers fill stroke"
       d="m -588.23395,322.28334 -7.25321,30.53984 1.14524,32.06684 12.59769,22.52314 20.61439,14.88818 29.77635,30.15808 7.25322,-3.81746 -24.81363,-32.44861 -25.19537,-24.8136 -14.88818,-30.92162 -0.38174,-18.70564 z"
       id="path19722" /><path
       style="fill:#35b31c;fill-opacity:1;stroke:none;stroke-width:2.286;stroke-dasharray:none;stroke-dashoffset:0;stroke-opacity:1;paint-order:markers fill stroke"
       d="m -502.72238,274.56483 4.58097,24.43187 -3.81748,28.24937 -13.36118,30.92159 -5.72622,10.68893 -0.7635,20.6144 5.34448,19.46915 -4.96273,48.86376 22.14139,2.67224 4.58098,-35.12082 -7.25322,-24.05012 -5.34447,-26.72236 3.81748,-20.99617 6.10797,-20.61438 6.87147,-21.37791 -2.29049,-23.28661 z"
       id="path19724" /><path
       style="fill:#35b31c;fill-opacity:1;stroke:none;stroke-width:2.286;stroke-dasharray:none;stroke-dashoffset:0;stroke-opacity:1;paint-order:markers fill stroke"
       d="m -603.50387,423.44659 8.7802,-0.38177 6.48972,5.72622 6.10797,18.3239 34.73907,8.78023 3.43574,-11.0707 -21.75964,-6.48973 -6.87147,-8.39845 -7.25321,-11.0707 -16.79692,-2.29047 z"
       id="path19726" /><path
       style="fill:#35b31c;fill-opacity:1;stroke:none;stroke-width:2.286;stroke-dasharray:none;stroke-dashoffset:0;stroke-opacity:1;paint-order:markers fill stroke"
       d="m -451.18639,403.59567 -29.77635,10.68895 -12.21594,12.21595 -17.56041,33.97557 12.59768,3.05398 3.81749,-16.79692 5.72622,-3.81749 3.05398,-6.87144 0.7635,-6.10798 5.34447,-4.96271 13.36118,-4.96274 6.10797,-4.19923 z"
       id="path19728" /><path
       style="fill:#35b31c;fill-opacity:1;stroke:none;stroke-width:2.286;stroke-dasharray:none;stroke-dashoffset:0;stroke-opacity:1;paint-order:markers fill stroke"
       d="m -448.51416,310.8309 4.58098,-3.43575 3.81748,5.72622 -2.29049,12.21595 -7.25321,12.97945 -16.03342,13.36117 -13.36118,11.8342 -6.48972,11.45244 -8.01671,29.01285 -13.36118,54.20821 -6.10797,-2.67221 17.56041,-71.38692 6.87147,-18.3239 13.74293,-15.65166 19.0874,-13.74294 8.01671,-9.16194 z"
       id="path19730" /><ellipse
       style="fill:#c1c798;fill-opacity:1;stroke:none;stroke-width:2.76307;stroke-dasharray:none;stroke-dashoffset:0;stroke-opacity:1;paint-order:markers fill stroke"
       id="path21785"
       cx="-549.1861"
       cy="454.5733"
       rx="25.239077"
       ry="14.846516" /><ellipse
       style="fill:#c1c798;fill-opacity:1;stroke:none;stroke-width:2.76307;stroke-dasharray:none;stroke-dashoffset:0;stroke-opacity:1;paint-order:markers fill stroke"
       id="path21785-2"
       cx="-508.56067"
       cy="462.67142"
       rx="25.239077"
       ry="14.846516" /><ellipse
       style="fill:#c1c798;fill-opacity:1;stroke:none;stroke-width:2.76307;stroke-dasharray:none;stroke-dashoffset:0;stroke-opacity:1;paint-order:markers fill stroke"
       id="path21785-2-1"
       cx="-535.55432"
       cy="469.14987"
       rx="25.239077"
       ry="14.846516" /><path
       style="fill:#88dc2e;fill-opacity:1;stroke:none;stroke-width:2.286;stroke-dasharray:none;stroke-dashoffset:0;stroke-opacity:1;paint-order:markers fill stroke"
       d="m -360.56104,696.1176 25.76798,17.17866 18.13304,26.34062 -14.69729,-26.91323 z"
       id="path22680" /><path
       style="fill:#88dc2e;fill-opacity:1;stroke:none;stroke-width:2.286;stroke-dasharray:none;stroke-dashoffset:0;stroke-opacity:1;paint-order:markers fill stroke"
       d="m -358.27057,677.7937 25.95888,36.64781 16.03341,26.91323 -15.07903,-35.8843 -21.56878,-26.53149 z"
       id="path22682" /><path
       style="fill:#88dc2e;fill-opacity:1;stroke:none;stroke-width:2.286;stroke-dasharray:none;stroke-dashoffset:0;stroke-opacity:1;paint-order:markers fill stroke"
       d="m -349.68124,669.77698 18.13303,25.76799 10.68896,35.50258 5.91709,19.46915 -15.84254,-63.9428 z"
       id="path22684" /><path
       style="fill:#88dc2e;fill-opacity:1;stroke:none;stroke-width:2.286;stroke-dasharray:none;stroke-dashoffset:0;stroke-opacity:1;paint-order:markers fill stroke"
       d="m -334.41132,691.91838 11.26157,35.12081 0.76351,-4.77184 -9.16197,-30.53985 z"
       id="path22686" /><path
       style="fill:#88dc2e;fill-opacity:1;stroke:none;stroke-width:2.286;stroke-dasharray:none;stroke-dashoffset:0;stroke-opacity:1;paint-order:markers fill stroke"
       d="m -360.75194,644.009 c 0.76351,0.19087 25.57714,28.44022 25.57714,28.44022 l 8.58933,14.50642 0.57261,3.43575 -4.58097,-3.81749 4.58097,29.01286 11.0707,33.59382 -8.20759,-59.17094 -3.43572,-13.36119 0.57261,-9.16196 -2.48134,5.91711 -7.82585,-9.92545 1.71786,5.15358 -12.40681,-14.31554 z"
       id="path22688" /><path
       style="fill:#88dc2e;fill-opacity:1;stroke:none;stroke-width:2.286;stroke-dasharray:none;stroke-dashoffset:0;stroke-opacity:1;paint-order:markers fill stroke"
       d="m -326.96721,659.4698 7.44408,23.85925 -2.86311,15.65166 7.63495,52.29948 v -55.54433 l 1.90875,-11.64333 -0.7635,-9.16194 4.96273,-19.27828 5.72622,-26.72236 -4.58097,2.67224 -4.00836,10.68892 -4.00835,21.37791 -1.71786,11.0707 -3.43575,-12.97945 -0.57261,8.20758 z"
       id="path22690" /><path
       style="fill:#88dc2e;fill-opacity:1;stroke:none;stroke-width:2.286;stroke-dasharray:none;stroke-dashoffset:0;stroke-opacity:1;paint-order:markers fill stroke"
       d="m -297.19087,655.46144 -9.92545,16.0334 -8.7802,32.44861 4.58097,-3.24488 7.25321,-32.44858 z"
       id="path22692" /><path
       style="fill:#88dc2e;fill-opacity:1;stroke:none;stroke-width:2.286;stroke-dasharray:none;stroke-dashoffset:0;stroke-opacity:1;paint-order:markers fill stroke"
       d="m -276.57647,649.54435 -7.06234,1.33609 -9.5437,9.16197 -16.41518,23.85925 1.33612,4.19923 12.59769,-21.37789 6.48973,-8.01671 z"
       id="path22694" /><path
       style="fill:#88dc2e;fill-opacity:1;stroke:none;stroke-width:2.286;stroke-dasharray:none;stroke-dashoffset:0;stroke-opacity:1;paint-order:markers fill stroke"
       d="m -299.48137,662.33291 -4.19923,10.87979 -2.67224,22.33227 -10.30718,38.55656 6.29885,-1.33612 11.0707,-55.73522 0.76348,-9.73457 z"
       id="path22696" /><path
       style="fill:#88dc2e;fill-opacity:1;stroke:none;stroke-width:2.286;stroke-dasharray:none;stroke-dashoffset:0;stroke-opacity:1;paint-order:markers fill stroke"
       d="m -308.45244,685.81042 -2.86311,25.76798 5.34448,-6.87147 2.67224,-24.81363 -5.34448,7.25321 z"
       id="path22698" /><path
       style="fill:#88dc2e;fill-opacity:1;stroke:none;stroke-width:2.286;stroke-dasharray:none;stroke-dashoffset:0;stroke-opacity:1;paint-order:markers fill stroke"
       d="m -297.57261,682.56554 -8.9711,21.18701 -6.10796,26.14975 29.77635,-49.81813 3.43574,-9.54368 -11.26156,13.74291 -13.3612,22.71403 8.01672,-16.03343 -3.24485,0.7635 z"
       id="path22700" /><path
       style="fill:#88dc2e;fill-opacity:1;stroke:none;stroke-width:2.286;stroke-dasharray:none;stroke-dashoffset:0;stroke-opacity:1;paint-order:markers fill stroke"
       d="m -309.02505,689.24614 -8.01671,13.74293 1.33612,25.0045 5.34447,-1.52699 z"
       id="path22702" /><path
       style="fill:#88dc2e;fill-opacity:1;stroke:none;stroke-width:2.286;stroke-dasharray:none;stroke-dashoffset:0;stroke-opacity:1;paint-order:markers fill stroke"
       d="m -271.61376,678.17544 -6.10796,1.33612 -9.16196,10.68895 -17.75127,23.09575 -12.02507,23.47751 1.71786,13.9338 1.33612,-0.19087 1.52699,-14.12467 12.21594,-20.04179 7.82585,-8.7802 0.57261,-4.58097 6.87146,-8.20759 4.00836,-6.29885 z"
       id="path22704" /><path
       style="fill:none;stroke:#ffffff;stroke-width:4.99999;stroke-dasharray:none;stroke-opacity:1;paint-order:markers fill stroke"
       d="m 239.35604,535.21079 c 0,0 26.14253,-111.42384 108.41645,-113.37918 98.21502,-2.33419 119.10541,113.37918 119.10541,113.37918"
       id="path1232"
       sodipodi:nodetypes="csc"
       inkscape:export-filename="UI\AirGuage.png"
       inkscape:export-xdpi="96"
       inkscape:export-ydpi="96" /><rect
       style="fill:#434343;stroke-width:3;paint-order:markers fill stroke;stroke:#d9a263;stroke-opacity:1;stroke-dasharray:none;fill-opacity:1"
       id="rect408"
       width="74.44088"
       height="74.44088"
       x="464.5874"
       y="250.80847"
       inkscape:export-filename="UI\button-with-border.png"
       inkscape:export-xdpi="96"
       inkscape:export-ydpi="96" /></g></svg>
